0
SECTION
2
HEADER
9
$INSUNITS
70
4
9
$ACADVER
1
AC1014
9
$HANDSEED
5
FFFF
0
ENDSEC
0
SECTION
2
TABLES
0
TABLE
2
VPORT
5
8
100
AcDbSymbolTable
0
ENDTAB
0
TABLE
2
LTYPE
5
5
100
AcDbSymbolTable
0
LTYPE
5
14
100
AcDbSymbolTableRecord
100
AcDbLinetypeTableRecord
2
BYBLOCK
70
0
0
LTYPE
5
15
100
AcDbSymbolTableRecord
100
AcDbLinetypeTableRecord
2
BYLAYER
70
0
0
ENDTAB
0
TABLE
2
LAYER
5
2
100
AcDbSymbolTable
70
2
0
LAYER
5
50
100
AcDbSymbolTableRecord
100
AcDbLayerTableRecord
2
0
70
0
6
CONTINUOUS
0
ENDTAB
0
TABLE
2
STYLE
5
3
100
AcDbSymbolTable
70
1
0
STYLE
5
11
100
AcDbSymbolTableRecord
100
AcDbTextStyleTableRecord
2
STANDARD
70
0
0
ENDTAB
0
TABLE
2
VIEW
5
6
100
AcDbSymbolTable
70
0
0
ENDTAB
0
TABLE
2
UCS
5
7
100
AcDbSymbolTable
70
0
0
ENDTAB
0
TABLE
2
APPID
5
9
100
AcDbSymbolTable
70
2
0
APPID
5
12
100
AcDbSymbolTableRecord
100
AcDbRegAppTableRecord
2
ACAD
70
0
0
ENDTAB
0
TABLE
2
DIMSTYLE
5
A
100
AcDbSymbolTable
70
1
0
ENDTAB
0
TABLE
2
BLOCK_RECORD
5
1
100
AcDbSymbolTable
70
1
0
BLOCK_RECORD
5
1F
100
AcDbSymbolTableRecord
100
AcDbBlockTableRecord
2
*MODEL_SPACE
0
BLOCK_RECORD
5
1B
100
AcDbSymbolTableRecord
100
AcDbBlockTableRecord
2
*PAPER_SPACE
0
ENDTAB
0
ENDSEC
0
SECTION
2
BLOCKS
0
BLOCK
5
20
100
AcDbEntity
100
AcDbBlockBegin
2
*MODEL_SPACE
0
ENDBLK
5
21
100
AcDbEntity
100
AcDbBlockEnd
0
BLOCK
5
1C
100
AcDbEntity
100
AcDbBlockBegin
2
*PAPER_SPACE
0
ENDBLK
5
1D
100
AcDbEntity
100
AcDbBlockEnd
0
ENDSEC
0
SECTION
2
ENTITIES
0
CIRCLE
5
100
100
AcDbEntity
8
0
100
AcDbCircle
10
-10.350000000001705
20
58.632537961705339
30
0
40
0.99999999999999534
210
-1.1022953200335066e-32
220
-7.9339625013308786e-41
230
1
0
CIRCLE
5
101
100
AcDbEntity
8
0
100
AcDbCircle
10
-10.349999999998339
20
72.63253796170531
30
-2.2204460492503131e-15
40
0.99999999999999978
210
-1.0417189978745489e-32
220
-1.540744030489327e-33
230
1
0
CIRCLE
5
102
100
AcDbEntity
8
0
100
AcDbCircle
10
-5.4002525316930061
20
70.582285430009975
30
0
40
0.99999999999999978
210
-1.0417189978745489e-32
220
-1.540744030489327e-33
230
1
0
CIRCLE
5
103
100
AcDbEntity
8
0
100
AcDbCircle
10
-15.299747468307036
20
60.682790493400695
30
0
40
0.99999999999999412
210
-1.0417189990224926e-32
220
-1.540744030489327e-33
230
1
0
CIRCLE
5
104
100
AcDbEntity
8
0
100
AcDbCircle
10
-5.4002525316953882
20
60.682790493398322
30
0
40
0.99999999999999534
210
-1.1022953200335066e-32
220
-7.9339625013308786e-41
230
1
0
CIRCLE
5
105
100
AcDbEntity
8
0
100
AcDbCircle
10
-15.299747468304659
20
70.582285430012348
30
0
40
0.99999999999999845
210
-1.1022953200335066e-32
220
-7.9339625013308797e-41
230
1
0
CIRCLE
5
106
100
AcDbEntity
8
0
100
AcDbCircle
10
-3.3500000000000361
20
65.632537961703648
30
0
40
0.99999999999999489
210
-1.0417190012794136e-32
220
-7.4979538415177494e-41
230
1
0
CIRCLE
5
107
100
AcDbEntity
8
0
100
AcDbCircle
10
-17.350000000000019
20
65.632537961707001
30
0
40
0.99999999999999412
210
-1.0417189990224926e-32
220
-1.540744030489327e-33
230
1
0
LWPOLYLINE
5
108
100
AcDbEntity
8
0
100
AcDbPolyline
90
56
70
1
43
0.0
10
-28.013607772413934
20
68.798896194973466
42
-0.22091069094497362
10
-22.721886635547325
20
69.213201960507419
42
-0.046623801696852221
10
-21.837477014100454
20
71.452222334887495
42
-0.22091069094497282
10
-25.417668433415223
20
75.370919983186042
42
-0.013418293296738187
10
-24.871788184462883
20
76.16782714023276
42
-0.22091069094497456
10
-19.924351647837021
20
74.245111983540227
42
-0.046623801696851999
10
-18.156051580443613
20
75.878668681990987
42
-0.22091069094497373
10
-19.681433402262648
20
80.962680105599262
42
-0.013418293296738187
10
-18.843847235324784
20
81.44382008118113
42
-0.22091069094497409
10
-15.220595781345668
20
77.564901319599016
42
-0.046623801696851555
10
-12.918638783130131
20
78.269448403734089
42
-0.22091069094497234
10
-12.087090430061821
20
83.511822788898201
42
-0.013418293296738187
10
-11.1236925578207
20
83.581899910056649
42
-0.2209106909449742
10
-9.5422555732118592
20
78.515044976132941
42
-0.046623801696852221
10
-7.162572459320625
20
78.1510382552365
42
-0.22091069094497351
10
-4.1387922809614235
20
82.513459061472105
42
-0.013418293296738187
10
-3.2403954673139173
20
82.158593694922217
42
-0.22091069094497387
10
-4.0139959419289308
20
76.907355349218335
42
-0.046623801696851777
10
-2.027912137966339
20
75.546890818613377
42
-0.22091069094497329
10
2.5892031171294732
20
78.165327103665362
42
-0.013418293296738187
10
3.2446603651266406
20
77.455804687390454
42
-0.22091069094497387
10
0.26924349287244032
20
73.060255086484915
42
-0.046623801696851444
10
1.4683597318122454
20
70.972789431460242
42
-0.22091069094497387
10
6.7643337621703967
20
71.328627776060415
42
-0.013418293296737188
10
7.0470300978957123
20
70.404977926325188
42
-0.22091069094497504
10
2.4591146306455256
20
67.735709576555507
42
-0.046623801696851777
10
2.6337636272449401
20
65.33469097117495
42
-0.22091069094497187
10
7.5596638252938515
20
63.357453227104443
42
-0.013418293296738742
10
7.4136077724139433
20
62.402616124470796
42
-0.2209106909449749
10
2.1218866355473103
20
61.988310358936857
42
-0.046623801696851555
10
1.2374770141004365
20
59.749289984556825
42
-0.22091069094497304
10
4.8176684334151663
20
55.830592336258277
42
-0.013418293296738187
10
4.27178818446282
20
55.033685179211538
42
-0.22091069094497362
10
-0.67564835216302432
20
56.956400335904078
42
-0.046623801696851555
10
-2.4439484195564267
20
55.32284363745336
42
-0.22091069094497351
10
-0.91856659773745586
20
50.238832213845058
42
-0.013418293296734078
10
-1.7561527646750714
20
49.757692238263331
42
-0.2209106909449742
10
-5.3794042186542343
20
53.636610999845445
42
-0.046623801696851444
10
-7.6813612168697336
20
52.932063915710344
42
-0.22091069094497257
10
-8.5129095699380244
20
47.689689530546204
42
-0.013418293296738187
10
-9.4763074421791593
20
47.619612409387742
42
-0.22091069094497515
10
-11.057744426788048
20
52.686467343311456
42
-0.046623801696851555
10
-13.437427540679243
20
53.050474064207876
42
-0.22091069094497304
10
-16.461207719038402
20
48.688053257972221
42
-0.013418293296738742
10
-17.359604532685943
20
49.042918624522123
42
-0.22091069094497456
10
-16.586004058070959
20
54.294156970226027
42
-0.046623801696851777
10
-18.572087862033548
20
55.65462150083097
42
-0.22091069094497515
10
-23.189203117129349
20
53.036185215778943
42
-0.013418293296738742
10
-23.84466036512654
20
53.745707632053879
42
-0.2209106909449742
10
-20.869243492872371
20
58.14125723295944
42
-0.046623801696851444
10
-22.068359731812169
20
60.228722887984077
42
-0.22091069094497504
10
-27.364333762170304
20
59.872884543383769
42
-0.013418293296738742
10
-27.647030097895655
20
60.796534393119117
42
-0.22091069094497467
10
-23.059114630645468
20
63.465802742888826
42
-0.046623801696851444
10
-23.233763627244898
20
65.866821348269355
42
-0.22091069094497176
10
-28.159663825293837
20
67.844059092339876
42
-0.013418293296738187
0
CIRCLE
5
109
100
AcDbEntity
8
0
100
AcDbCircle
10
-10.29999999999999
20
65.600756159722209
30
-2.2204460492503131e-15
40
3.1072623842859324
210
-9.779464375516275e-33
220
-6.2157331975313017e-33
230
1
0
ENDSEC
0
SECTION
2
OBJECTS
0
DICTIONARY
5
C
100
AcDbDictionary
3
ACAD_GROUP
350
D
3
ACAD_MLINESTYLE
350
17
0
DICTIONARY
5
D
100
AcDbDictionary
0
DICTIONARY
5
1A
330
C
100
AcDbDictionary
0
DICTIONARY
5
17
100
AcDbDictionary
0
ENDSEC
0
EOF
