0
SECTION
2
HEADER
9
$INSUNITS
70
4
9
$ACADVER
1
AC1014
9
$HANDSEED
5
FFFF
0
ENDSEC
0
SECTION
2
TABLES
0
TABLE
2
VPORT
5
8
100
AcDbSymbolTable
0
ENDTAB
0
TABLE
2
LTYPE
5
5
100
AcDbSymbolTable
0
LTYPE
5
14
100
AcDbSymbolTableRecord
100
AcDbLinetypeTableRecord
2
BYBLOCK
70
0
0
LTYPE
5
15
100
AcDbSymbolTableRecord
100
AcDbLinetypeTableRecord
2
BYLAYER
70
0
0
ENDTAB
0
TABLE
2
LAYER
5
2
100
AcDbSymbolTable
70
2
0
LAYER
5
50
100
AcDbSymbolTableRecord
100
AcDbLayerTableRecord
2
0
70
0
6
CONTINUOUS
0
ENDTAB
0
TABLE
2
STYLE
5
3
100
AcDbSymbolTable
70
1
0
STYLE
5
11
100
AcDbSymbolTableRecord
100
AcDbTextStyleTableRecord
2
STANDARD
70
0
0
ENDTAB
0
TABLE
2
VIEW
5
6
100
AcDbSymbolTable
70
0
0
ENDTAB
0
TABLE
2
UCS
5
7
100
AcDbSymbolTable
70
0
0
ENDTAB
0
TABLE
2
APPID
5
9
100
AcDbSymbolTable
70
2
0
APPID
5
12
100
AcDbSymbolTableRecord
100
AcDbRegAppTableRecord
2
ACAD
70
0
0
ENDTAB
0
TABLE
2
DIMSTYLE
5
A
100
AcDbSymbolTable
70
1
0
ENDTAB
0
TABLE
2
BLOCK_RECORD
5
1
100
AcDbSymbolTable
70
1
0
BLOCK_RECORD
5
1F
100
AcDbSymbolTableRecord
100
AcDbBlockTableRecord
2
*MODEL_SPACE
0
BLOCK_RECORD
5
1B
100
AcDbSymbolTableRecord
100
AcDbBlockTableRecord
2
*PAPER_SPACE
0
ENDTAB
0
ENDSEC
0
SECTION
2
BLOCKS
0
BLOCK
5
20
100
AcDbEntity
100
AcDbBlockBegin
2
*MODEL_SPACE
0
ENDBLK
5
21
100
AcDbEntity
100
AcDbBlockEnd
0
BLOCK
5
1C
100
AcDbEntity
100
AcDbBlockBegin
2
*PAPER_SPACE
0
ENDBLK
5
1D
100
AcDbEntity
100
AcDbBlockEnd
0
ENDSEC
0
SECTION
2
ENTITIES
0
LWPOLYLINE
5
100
100
AcDbEntity
8
0
100
AcDbPolyline
90
64
70
1
43
0.0
10
-145
20
58.690850386061868
10
-144.99999999999997
20
59.874514043993543
42
-0.088291190019040983
10
-145
20
62.397631770549218
10
-145
20
82.351053237915011
42
-0.99999999999999989
10
-135
20
82.351053237915039
10
-135.00000000000003
20
62.397631770547264
42
-0.088291190018905147
10
-135
20
59.874514043995511
10
-134.99999999999994
20
58.690850386062074
42
-0.033527093613255628
10
-133.12824774249097
20
57.893903866989412
42
-0.19150450931309984
10
-129.1973186895483
20
61.47894208928318
42
-0.013178682501230136
10
-128.30990121772291
20
60.885988691693036
42
-0.19150450931310434
10
-130.11774323220681
20
55.882349063858186
42
-0.038447646785380242
10
-128.46870417405717
20
54.233310005708226
42
-0.19150450931310342
10
-123.46506454622212
20
56.041152020192449
42
-0.013178682501229692
10
-122.87211114863214
20
55.153734548367019
42
-0.19150450931310273
10
-126.45714937092552
20
51.222805495424531
42
-0.038447646785378799
10
-125.56469586366634
20
49.068232134411346
42
-0.19150450931310192
10
-120.25010443617052
20
48.823650382509307
42
-0.013178682501229135
10
-120.04188689246298
20
47.776870102074582
42
-0.19150450931310606
10
-124.85833175167427
20
45.517099938374287
42
-0.038447646785376238
10
-124.8583317516745
20
43.185006537455983
42
-0.19150450931310686
10
-120.04188689246284
20
40.925236373755737
42
-0.01317868250122858
10
-120.2501044361705
20
39.878456093321041
42
-0.1915045093131055
10
-125.56469586366612
20
39.633874341418903
42
-0.03844764678537535
10
-126.45714937092571
20
37.479300980405846
42
-0.19150450931310617
10
-122.87211114863197
20
33.548371927463229
42
-0.013178682501227581
10
-123.46506454622204
20
32.660954455637949
42
-0.19150450931310364
10
-128.468704174057
20
34.468796470121902
42
-0.038447646785373907
10
-130.11774323220683
20
32.819757411972219
42
-0.19150450931310642
10
-128.30990121772271
20
27.816117784137191
42
-0.013178682501228025
10
-129.19731868954807
20
27.223164386547104
42
-0.19150450931310928
10
-133.12824774249071
20
30.808202608840794
42
-0.038447646785373345
10
-135.28282110350381
20
29.915749101581373
42
-0.19150450931310467
10
-135.527402855406
20
24.601157674085592
42
-0.013178682501225916
10
-136.57418313584049
20
24.392940130377987
42
-0.19150450931310617
10
-138.83395329954081
20
29.209384989589662
42
-0.038447646785374462
10
-141.16604670045919
20
29.209384989589541
42
-0.19150450931310872
10
-143.42581686415937
20
24.392940130378058
42
-0.013178682501227581
10
-144.47259714459403
20
24.601157674085584
42
-0.19150450931311008
10
-144.71717889649608
20
29.91574910158155
42
-0.038447646785375683
10
-146.87175225750923
20
30.808202608840762
42
-0.19150450931310573
10
-150.80268131045182
20
27.223164386547126
42
-0.013178682501227581
10
-151.69009878227718
20
27.816117784137084
42
-0.19150450931310123
10
-149.88225676779297
20
32.819757411972347
42
-0.038447646785377571
10
-151.53129582594286
20
34.46879647012188
42
-0.19150450931310295
10
-156.53493545377776
20
32.660954455637793
42
-0.013178682501230136
10
-157.12788885136797
20
33.548371927463201
42
-0.19150450931310814
10
-153.54285062907402
20
37.479300980405924
42
-0.038447646785378688
10
-154.43530413633366
20
39.633874341418853
42
-0.19150450931310353
10
-159.74989556382934
20
39.878456093320935
42
-0.013178682501229692
10
-159.95811310753706
20
40.925236373755631
42
-0.19150450931310825
10
-155.14166824832526
20
43.185006537455912
42
-0.038447646785380464
10
-155.14166824832552
20
45.517099938374201
42
-0.19150450931310251
10
-159.95811310753697
20
47.776870102074291
42
-0.013178682501228025
10
-159.74989556382948
20
48.823650382508873
42
-0.19150450931310686
10
-154.43530413633354
20
49.06823213441097
42
-0.038447646785381907
10
-153.54285062907434
20
51.22280549542414
42
-0.1915045093130979
10
-157.12788885136806
20
55.153734548366643
42
-0.013178682501230136
10
-156.53493545377805
20
56.041152020192044
42
-0.19150450931310631
10
-151.53129582594289
20
54.233310005707963
42
-0.038447646785383358
10
-149.88225676779322
20
55.882349063857802
42
-0.19150450931310573
10
-151.69009878227746
20
60.885988691692738
42
-0.013178682501231801
10
-150.80268131045202
20
61.47894208928291
42
-0.19150450931310561
10
-146.87175225750937
20
57.893903866989227
42
-0.03352709361326163
0
CIRCLE
5
101
100
AcDbEntity
8
0
100
AcDbCircle
10
-140.00000000000077
20
44.351053237916659
30
-3.3587372566785459e-43
40
1.5000000000000002
210
-3.6383875258877648e-31
220
-2.4651903288156679e-32
230
1
0
CIRCLE
5
102
100
AcDbEntity
8
0
100
AcDbCircle
10
-140
20
82.351053237915025
30
0
40
1.5000000000000013
210
3.0591700021729427e-32
220
5.0945414589824752e-48
230
1
0
ENDSEC
0
SECTION
2
OBJECTS
0
DICTIONARY
5
C
100
AcDbDictionary
3
ACAD_GROUP
350
D
3
ACAD_MLINESTYLE
350
17
0
DICTIONARY
5
D
100
AcDbDictionary
0
DICTIONARY
5
1A
330
C
100
AcDbDictionary
0
DICTIONARY
5
17
100
AcDbDictionary
0
ENDSEC
0
EOF
