0
SECTION
2
HEADER
9
$INSUNITS
70
4
9
$ACADVER
1
AC1014
9
$HANDSEED
5
FFFF
0
ENDSEC
0
SECTION
2
TABLES
0
TABLE
2
VPORT
5
8
100
AcDbSymbolTable
0
ENDTAB
0
TABLE
2
LTYPE
5
5
100
AcDbSymbolTable
0
LTYPE
5
14
100
AcDbSymbolTableRecord
100
AcDbLinetypeTableRecord
2
BYBLOCK
70
0
0
LTYPE
5
15
100
AcDbSymbolTableRecord
100
AcDbLinetypeTableRecord
2
BYLAYER
70
0
0
ENDTAB
0
TABLE
2
LAYER
5
2
100
AcDbSymbolTable
70
2
0
LAYER
5
50
100
AcDbSymbolTableRecord
100
AcDbLayerTableRecord
2
0
70
0
6
CONTINUOUS
0
ENDTAB
0
TABLE
2
STYLE
5
3
100
AcDbSymbolTable
70
1
0
STYLE
5
11
100
AcDbSymbolTableRecord
100
AcDbTextStyleTableRecord
2
STANDARD
70
0
0
ENDTAB
0
TABLE
2
VIEW
5
6
100
AcDbSymbolTable
70
0
0
ENDTAB
0
TABLE
2
UCS
5
7
100
AcDbSymbolTable
70
0
0
ENDTAB
0
TABLE
2
APPID
5
9
100
AcDbSymbolTable
70
2
0
APPID
5
12
100
AcDbSymbolTableRecord
100
AcDbRegAppTableRecord
2
ACAD
70
0
0
ENDTAB
0
TABLE
2
DIMSTYLE
5
A
100
AcDbSymbolTable
70
1
0
ENDTAB
0
TABLE
2
BLOCK_RECORD
5
1
100
AcDbSymbolTable
70
1
0
BLOCK_RECORD
5
1F
100
AcDbSymbolTableRecord
100
AcDbBlockTableRecord
2
*MODEL_SPACE
0
BLOCK_RECORD
5
1B
100
AcDbSymbolTableRecord
100
AcDbBlockTableRecord
2
*PAPER_SPACE
0
ENDTAB
0
ENDSEC
0
SECTION
2
BLOCKS
0
BLOCK
5
20
100
AcDbEntity
100
AcDbBlockBegin
2
*MODEL_SPACE
0
ENDBLK
5
21
100
AcDbEntity
100
AcDbBlockEnd
0
BLOCK
5
1C
100
AcDbEntity
100
AcDbBlockBegin
2
*PAPER_SPACE
0
ENDBLK
5
1D
100
AcDbEntity
100
AcDbBlockEnd
0
ENDSEC
0
SECTION
2
ENTITIES
0
LWPOLYLINE
5
100
100
AcDbEntity
8
0
100
AcDbPolyline
90
62
70
1
43
0.0
10
-185.00000000000011
20
61.511018696031442
42
-0.11611397516149544
10
-182.66394963618907
20
63.841297938854126
42
-0.013178682501230136
10
-181.67969568067952
20
63.428566001540631
42
-0.1915045093131055
10
-182.49958309486246
20
58.171904808098589
42
-0.038447646785378126
10
-180.56619004279355
20
56.86781472807408
42
-0.19150450931310423
10
-175.99943388651795
20
59.597181043483886
42
-0.013178682501230136
10
-175.24804747664723
20
58.839208772172896
42
-0.19150450931310412
10
-178.01716182586119
20
54.296444416017977
42
-0.038447646785378688
10
-176.72999322469224
20
52.351744793255754
42
-0.19150450931310412
10
-171.46637741217657
20
53.125728548130681
42
-0.013178682501226471
10
-171.06225031751285
20
52.137910350093833
42
-0.19150450931310792
10
-175.35901904417412
20
49.000637524189003
42
-0.038447646785379021
10
-174.91403464522062
20
46.711391247508629
42
-0.1915045093131055
10
-169.7548969691243
20
45.412160431349278
42
-0.013178682501230136
10
-169.75955387640866
20
44.34488267264291
42
-0.19150450931310653
10
-174.92983289218859
20
43.090722725283314
42
-0.038447646785378799
10
-175.3947775363977
20
40.805446788240218
42
-0.19150450931310353
10
-171.12554994020681
20
37.630797515250059
42
-0.013178682501230136
10
-171.53828187752029
20
36.646543559740508
42
-0.19150450931310675
10
-176.79494307096235
20
37.466430973923408
42
-0.038447646785378466
10
-178.09903315098683
20
35.533037921854472
42
-0.19150450931311008
10
-175.36966683557694
20
30.966281765578891
42
-0.013178682501230136
10
-176.12763910688787
20
30.214895355708201
42
-0.19150450931310595
10
-180.67040346304293
20
32.984009704922165
42
-0.038447646785379354
10
-182.61510308580515
20
31.696841103753147
42
-0.19150450931309859
10
-181.84111933093021
20
26.433225291237488
42
-0.013178682501229135
10
-182.82893752896723
20
26.029098196573656
42
-0.19150450931310642
10
-185.96621035487203
20
30.325866923234955
42
-0.038447646785379354
10
-188.25545663155242
20
29.880882524281468
42
-0.19150450931310756
10
-189.55468744771184
20
24.721744848185153
42
-0.013178682501230136
10
-190.6219652064182
20
24.726401755469535
42
-0.19150450931310514
10
-191.87612515377776
20
29.896680771249432
42
-0.038447646785377904
10
-194.16140109082079
20
30.361625415458498
42
-0.19150450931310606
10
-197.3360503638111
20
26.092397819267646
42
-0.013178682501229135
10
-198.32030431932057
20
26.50512975658112
42
-0.19150450931310697
10
-197.50041690513768
20
31.761790950023151
42
-0.038447646785378466
10
-199.43380995720662
20
33.065881030047649
42
-0.19150450931310412
10
-204.00056611348214
20
30.336514714637744
42
-0.013178682501231246
10
-204.75195252335286
20
31.094486985948777
42
-0.19150450931310664
10
-201.98283817413892
20
35.637251342103774
42
-0.038447646785378799
10
-203.27000677530791
20
37.581950964865982
42
-0.19150450931310481
10
-208.53362258782352
20
36.80796720999102
42
-0.013178682501230136
10
-208.93774968248735
20
37.795785408028131
42
-0.19150450931310573
10
-204.64098095582608
20
40.933058233932925
42
-0.038447646785378799
10
-205.08596535477955
20
43.222304510613256
42
-0.191504509313104
10
-210.2451030308759
20
44.521535326772685
42
-0.013178682501230136
10
-210.24044612359148
20
45.588813085479039
42
-0.19150450931310617
10
-205.07016710781159
20
46.842973032838621
42
-0.038447646785378126
10
-204.60522246360253
20
49.128248969881668
42
-0.19150450931310536
10
-208.87445005979333
20
52.302898242871898
42
-0.013178682501230136
10
-208.46171812247985
20
53.287152198381413
42
-0.19150450931310481
10
-203.2050569290378
20
52.467264784198484
42
-0.038447646785379021
10
-201.90096684901332
20
54.400657836267442
42
-0.19150450931310387
10
-204.63033316442306
20
58.967413992543086
42
-0.013178682501229135
10
-203.87236089311216
20
59.718800402413763
42
-0.1915045093131055
10
-199.32959653695715
20
56.94968605319977
42
-0.038447646785378126
10
-197.384896914195
20
58.236854654368727
42
-0.19150450931310803
10
-198.15888066907002
20
63.500470466884316
42
-0.013178682501231246
10
-197.17106247103283
20
63.904597561548179
42
-0.10662876140746488
10
-195.00000000000011
20
61.781834032194652
10
-195.00000000000011
20
82.966847879060907
42
-0.99999999999999989
10
-185.00000000000011
20
82.966847879060907
0
CIRCLE
5
101
100
AcDbEntity
8
0
100
AcDbCircle
10
-190.00000000000011
20
44.966847879060907
30
0
40
1.5000000000000004
210
-4.0329302638943294e-32
220
2.983073584883331e-32
230
1
0
CIRCLE
5
102
100
AcDbEntity
8
0
100
AcDbCircle
10
-190.00000000000011
20
82.966847879060907
30
-1.1102230246251565e-15
40
1.5000000000000016
210
3.6483010492442113e-31
220
2.0689177693822543e-32
230
1
0
ENDSEC
0
SECTION
2
OBJECTS
0
DICTIONARY
5
C
100
AcDbDictionary
3
ACAD_GROUP
350
D
3
ACAD_MLINESTYLE
350
17
0
DICTIONARY
5
D
100
AcDbDictionary
0
DICTIONARY
5
1A
330
C
100
AcDbDictionary
0
DICTIONARY
5
17
100
AcDbDictionary
0
ENDSEC
0
EOF
